<svg width="376" height="417" viewBox="0 0 376 417" fill="none" xmlns="http://www.w3.org/2000/svg">
<path d="M181.3 18.88C181.011 20.4974 180.252 21.9938 179.117 23.1821C177.982 24.3705 176.523 25.1982 174.921 25.5618C173.318 25.9254 171.644 25.8088 170.108 25.2265C168.571 24.6443 167.241 23.6222 166.282 22.288C165.323 20.9538 164.778 19.3666 164.716 17.7247C164.654 16.0829 165.078 14.4591 165.933 13.0563C166.788 11.6536 168.038 10.534 169.526 9.83747C171.015 9.14094 172.675 8.89835 174.3 9.14C175.399 9.31974 176.452 9.71428 177.399 10.3011C178.346 10.8879 179.168 11.6554 179.818 12.5599C180.468 13.4644 180.933 14.4881 181.188 15.5725C181.442 16.6569 181.48 17.7808 181.3 18.88V18.88Z" fill="white"/>
<path d="M102.63 32.21C102.343 33.8282 101.585 35.3259 100.451 36.5158C99.3174 37.7057 97.8581 38.535 96.2556 38.9C94.6531 39.2651 92.9785 39.1497 91.4413 38.5682C89.904 37.9868 88.5722 36.9652 87.6124 35.631C86.6526 34.2969 86.1073 32.7094 86.0448 31.0671C85.9822 29.4247 86.4051 27.8004 87.2606 26.3971C88.1162 24.9938 89.3664 23.8738 90.8549 23.1771C92.3435 22.4804 94.0044 22.2379 95.63 22.48C97.8468 22.8456 99.8283 24.0749 101.14 25.8987C102.452 27.7225 102.988 29.992 102.63 32.21V32.21Z" fill="white"/>
<path d="M46.77 108.85C46.4809 110.467 45.7216 111.964 44.587 113.152C43.4524 114.341 41.9928 115.168 40.3905 115.532C38.7882 115.895 37.1142 115.779 35.5778 115.197C34.0414 114.614 32.7107 113.592 31.7518 112.258C30.7929 110.924 30.2484 109.337 30.1864 107.695C30.1243 106.053 30.5475 104.429 31.403 103.026C32.2584 101.624 33.5083 100.504 34.9964 99.8075C36.4845 99.1109 38.1448 98.8683 39.77 99.11C41.9888 99.4755 43.972 100.706 45.2843 102.532C46.5967 104.358 47.131 106.63 46.77 108.85V108.85Z" fill="white"/>
<path d="M17.3 186.22C17.0109 187.837 16.2517 189.334 15.117 190.522C13.9824 191.711 12.5228 192.538 10.9205 192.902C9.3182 193.265 7.64427 193.149 6.10786 192.567C4.57145 191.984 3.24068 190.962 2.2818 189.628C1.32292 188.294 0.778447 186.707 0.716412 185.065C0.654377 183.423 1.07753 181.799 1.933 180.396C2.78846 178.994 4.03832 177.874 5.52641 177.177C7.0145 176.481 8.67486 176.238 10.3 176.48C12.5188 176.846 14.502 178.076 15.8144 179.902C17.1267 181.728 17.661 184 17.3 186.22V186.22Z" fill="white"/>
<path d="M181.34 141.4C181.053 143.018 180.295 144.516 179.161 145.706C178.027 146.896 176.568 147.725 174.966 148.09C173.363 148.455 171.689 148.34 170.151 147.758C168.614 147.177 167.282 146.155 166.322 144.821C165.363 143.487 164.817 141.899 164.755 140.257C164.692 138.615 165.115 136.99 165.971 135.587C166.826 134.184 168.076 133.064 169.565 132.367C171.053 131.67 172.714 131.428 174.34 131.67C176.556 132.038 178.535 133.268 179.847 135.091C181.159 136.914 181.695 139.182 181.34 141.4V141.4Z" fill="white"/>
<path d="M181.3 73.37C181.011 74.9874 180.252 76.4838 179.117 77.6721C177.982 78.8605 176.523 79.6882 174.921 80.0518C173.318 80.4154 171.644 80.2988 170.108 79.7165C168.571 79.1343 167.241 78.1122 166.282 76.778C165.323 75.4438 164.778 73.8566 164.716 72.2147C164.654 70.5728 165.078 68.9491 165.933 67.5463C166.788 66.1436 168.038 65.024 169.526 64.3275C171.015 63.6309 172.675 63.3883 174.3 63.63C175.399 63.8097 176.452 64.2043 177.399 64.7911C178.346 65.3779 179.168 66.1454 179.818 67.0499C180.468 67.9544 180.933 68.9781 181.188 70.0625C181.442 71.1469 181.48 72.2708 181.3 73.37V73.37Z" fill="white"/>
<path d="M194.59 18.88C194.879 20.4974 195.638 21.9938 196.773 23.1821C197.908 24.3705 199.367 25.1982 200.97 25.5618C202.572 25.9254 204.246 25.8088 205.782 25.2265C207.319 24.6443 208.649 23.6222 209.608 22.288C210.567 20.9538 211.112 19.3666 211.174 17.7247C211.236 16.0829 210.813 14.4591 209.957 13.0563C209.102 11.6536 207.852 10.534 206.364 9.83747C204.876 9.14094 203.215 8.89835 201.59 9.14C199.371 9.50549 197.388 10.7363 196.076 12.5623C194.763 14.3884 194.229 16.6605 194.59 18.88V18.88Z" fill="white"/>
<path d="M273.26 32.21C273.547 33.8282 274.305 35.3259 275.439 36.5158C276.573 37.7057 278.032 38.535 279.635 38.9C281.237 39.2651 282.912 39.1497 284.449 38.5682C285.986 37.9868 287.318 36.9652 288.278 35.631C289.237 34.2969 289.783 32.7094 289.845 31.0671C289.908 29.4247 289.485 27.8004 288.629 26.3971C287.774 24.9938 286.524 23.8738 285.035 23.1771C283.547 22.4804 281.886 22.2379 280.26 22.48C278.043 22.8456 276.062 24.0749 274.75 25.8987C273.438 27.7225 272.902 29.992 273.26 32.21V32.21Z" fill="white"/>
<path d="M329.12 108.85C329.409 110.467 330.168 111.964 331.303 113.152C332.438 114.341 333.897 115.168 335.5 115.532C337.102 115.895 338.776 115.779 340.312 115.197C341.849 114.614 343.179 113.592 344.138 112.258C345.097 110.924 345.642 109.337 345.704 107.695C345.766 106.053 345.343 104.429 344.487 103.026C343.632 101.624 342.382 100.504 340.894 99.8075C339.406 99.1109 337.745 98.8683 336.12 99.11C333.901 99.4755 331.918 100.706 330.606 102.532C329.293 104.358 328.759 106.63 329.12 108.85V108.85Z" fill="white"/>
<path d="M358.59 186.22C358.879 187.837 359.638 189.334 360.773 190.522C361.908 191.711 363.367 192.538 364.97 192.902C366.572 193.265 368.246 193.149 369.782 192.567C371.319 191.984 372.649 190.962 373.608 189.628C374.567 188.294 375.112 186.707 375.174 185.065C375.236 183.423 374.812 181.799 373.957 180.396C373.102 178.994 371.852 177.874 370.364 177.177C368.875 176.481 367.215 176.238 365.59 176.48C363.371 176.846 361.388 178.076 360.076 179.902C358.763 181.728 358.229 184 358.59 186.22V186.22Z" fill="white"/>
<path d="M194.55 141.4C194.837 143.018 195.595 144.516 196.729 145.706C197.863 146.896 199.322 147.725 200.924 148.09C202.527 148.455 204.201 148.34 205.739 147.758C207.276 147.177 208.608 146.155 209.568 144.821C210.527 143.487 211.073 141.899 211.135 140.257C211.198 138.615 210.775 136.99 209.919 135.587C209.064 134.184 207.814 133.064 206.325 132.367C204.836 131.67 203.176 131.428 201.55 131.67C199.334 132.038 197.355 133.268 196.043 135.091C194.731 136.914 194.195 139.182 194.55 141.4V141.4Z" fill="white"/>
<path d="M194.59 73.37C194.879 74.9874 195.638 76.4838 196.773 77.6721C197.908 78.8605 199.367 79.6882 200.97 80.0518C202.572 80.4154 204.246 80.2988 205.782 79.7165C207.319 79.1343 208.649 78.1122 209.608 76.778C210.567 75.4438 211.112 73.8566 211.174 72.2147C211.236 70.5728 210.813 68.9491 209.957 67.5463C209.102 66.1436 207.852 65.024 206.364 64.3275C204.876 63.6309 203.215 63.3883 201.59 63.63C199.371 63.9955 197.388 65.2263 196.076 67.0523C194.763 68.8784 194.229 71.1505 194.59 73.37V73.37Z" fill="white"/>
<path d="M127.72 413.26C97.58 413.26 87.29 393.34 84.11 383.83C83.7 382.61 83.39 381.53 83.17 380.63C53.72 372.9 38.92 347.83 32.65 333.3C31.1214 329.83 29.8252 326.262 28.77 322.62C22.8905 308.225 22.1003 292.255 26.53 277.35C27.3488 274.573 28.351 271.854 29.53 269.21C28.6567 268.51 27.8067 267.78 26.98 267.02C4.22003 246.14 3.79003 208.57 4.66003 193.38C4.85003 189.95 5.12003 187.56 5.24003 186.59C4.93003 183.1 4.76002 179.7 4.72002 176.48C4.08002 131.19 27.4 111.96 34.63 107.09C35.56 69.72 51.26 49.91 64.41 39.83C72.6554 33.4762 82.2421 29.0881 92.44 27C106 10.7 120.9 1.89 136.8 0.779997C159.34 -0.800003 175.3 13.78 175.97 14.41L177.24 15.6V163.27H156.67L155.13 164.53L153.52 163.27H91.78L63.83 185.6L122.63 256.16L155.31 217.54L177.24 243.85V340.63C177.81 369.77 172.17 390.63 160.47 402.52C152.25 410.91 143.68 411.88 141.67 411.99C137.065 412.812 132.398 413.237 127.72 413.26V413.26ZM140.15 8.66C139.2 8.66 138.24 8.66 137.26 8.77C123.32 9.77 110 17.99 97.68 33.19L96.68 34.45L95.07 34.64C85.5548 36.3932 76.6081 40.4324 69 46.41C51.76 59.8 42.88 80.99 42.62 109.41V111.77L40.54 112.89C39.39 113.52 12.1 129.06 12.77 176.4C12.77 179.56 12.98 182.9 13.29 186.34V186.79L13.23 187.25C13.23 187.25 12.89 189.78 12.65 193.87C11.85 207.87 12.16 242.59 32.39 261.15C33.8083 262.452 35.3116 263.658 36.89 264.76L39.89 266.87L38 270C36.3897 273.052 35.1091 276.267 34.18 279.59C30.2354 292.833 30.9627 307.029 36.24 319.8L36.41 320.32C37.3733 323.659 38.5592 326.93 39.96 330.11C45.81 343.65 59.74 367.27 87.41 373.41L90.13 374.02L90.5 376.79C90.7682 378.308 91.1561 379.803 91.66 381.26C95.37 392.33 106.66 409.99 140.52 404.05L140.86 403.99H141.21C142.36 403.99 170.43 402.62 169.21 340.73V246.73L155.21 229.96L122.59 268.6L52.45 184.45L89 155.27H169.26V19.21C165.6 16.34 154.51 8.66 140.15 8.66V8.66Z" fill="white"/>
<path d="M248.13 413.26C243.466 413.24 238.812 412.818 234.22 412C232.22 411.89 223.64 410.92 215.42 402.53C203.72 390.59 198.07 369.76 198.65 340.6V243L220.1 217.63L252 256.12L310.77 185.61L282.77 163.27H198.65V15.6L199.92 14.41C200.59 13.79 216.53 -0.800001 239.09 0.779999C255 1.89 269.91 10.7 283.46 27C293 28.79 339.66 40.95 341.28 107.15C348.46 112.07 371.81 131.57 371.19 176.49C371.19 179.77 370.97 183.17 370.67 186.6C370.79 187.55 371.05 189.96 371.25 193.43C372.12 208.54 371.7 245.95 349.13 266.86C348.25 267.68 347.33 268.47 346.38 269.24C347.571 271.948 348.573 274.734 349.38 277.58L349.54 278.15C353.72 292.841 352.854 308.509 347.08 322.65C346.04 326.258 344.761 329.793 343.25 333.23C336.98 347.79 322.17 372.92 292.68 380.66C292.55 381.17 292.39 381.75 292.21 382.38L292.03 382.97C289.455 391.483 284.284 398.979 277.24 404.41C269.49 410.3 259.72 413.26 248.13 413.26ZM206.65 245.91V340.67C205.43 402.67 233.5 403.98 234.65 404.01L235.3 404.07C269.46 410.07 280.67 392.21 284.3 380.83L284.38 380.58C284.774 379.335 285.085 378.066 285.31 376.78L285.71 374.05L288.4 373.43C316.16 367.28 330.1 343.6 336 330C337.385 326.85 338.555 323.609 339.5 320.3L339.67 319.78C344.908 307.077 345.656 292.966 341.79 279.78L341.63 279.24C340.716 276.088 339.493 273.033 337.98 270.12L336.14 267L338.81 264.85C338.96 264.74 339.1 264.63 339.24 264.54C340.8 263.435 342.287 262.229 343.69 260.93C363.77 242.32 364.07 207.8 363.27 193.82C363.03 189.71 362.69 187.2 362.69 187.17L362.61 186.58L362.68 186.1C362.98 182.78 363.15 179.49 363.19 176.32C363.82 130.87 338.45 114.6 335.56 112.89L333.34 111.67V109.34C332.74 45.53 287.9 35.77 281.41 34.69L279.2 34.35L278.2 33.15C265.88 17.95 252.56 9.74 238.61 8.73C222.87 7.59 210.53 16.11 206.61 19.17V155.27H285.54L322.07 184.45L251.9 268.64L220 230.08L206.65 245.91ZM342.16 269.06L343.54 271.33L342.16 269.06Z" fill="white"/>
<path d="M42.84 272.2C42.5527 273.818 41.7948 275.316 40.6611 276.506C39.5273 277.696 38.068 278.525 36.4655 278.89C34.8631 279.255 33.1885 279.14 31.6513 278.558C30.114 277.977 28.7822 276.955 27.8224 275.621C26.8626 274.287 26.3173 272.699 26.2547 271.057C26.1922 269.415 26.6151 267.79 27.4706 266.387C28.3261 264.984 29.5763 263.864 31.0649 263.167C32.5535 262.47 34.2144 262.228 35.84 262.47C38.0568 262.836 40.0383 264.065 41.3503 265.889C42.6624 267.712 43.1981 269.982 42.84 272.2V272.2Z" fill="white"/>
<path d="M46.1 334.66C45.8127 336.278 45.0549 337.776 43.9211 338.966C42.7873 340.156 41.328 340.985 39.7255 341.35C38.123 341.715 36.4485 341.6 34.9112 341.018C33.374 340.437 32.0422 339.415 31.0824 338.081C30.1226 336.747 29.5773 335.159 29.5147 333.517C29.4522 331.875 29.8751 330.25 30.7306 328.847C31.5861 327.444 32.8363 326.324 34.3249 325.627C35.8135 324.93 37.4744 324.688 39.1 324.93C41.318 325.293 43.3011 326.522 44.6137 328.346C45.9262 330.171 46.4608 332.442 46.1 334.66V334.66Z" fill="white"/>
<path d="M95.62 377C95.3343 378.621 94.5767 380.122 93.442 381.315C92.3074 382.508 90.8462 383.34 89.2411 383.707C87.6361 384.074 85.9586 383.959 84.4185 383.377C82.8784 382.795 81.5441 381.772 80.5827 380.435C79.6212 379.099 79.0752 377.508 79.0131 375.863C78.9509 374.218 79.3753 372.591 80.2331 371.186C81.091 369.781 82.3443 368.66 83.8361 367.963C85.3278 367.267 86.9919 367.026 88.62 367.27C90.8356 367.638 92.8154 368.868 94.127 370.691C95.4386 372.514 95.9754 374.782 95.62 377Z" fill="white"/>
<path d="M149.28 409.21C148.993 410.828 148.235 412.326 147.101 413.516C145.967 414.706 144.508 415.535 142.906 415.9C141.303 416.265 139.629 416.15 138.091 415.568C136.554 414.987 135.222 413.965 134.262 412.631C133.303 411.297 132.757 409.709 132.695 408.067C132.632 406.425 133.055 404.8 133.911 403.397C134.766 401.994 136.016 400.874 137.505 400.177C138.994 399.48 140.654 399.238 142.28 399.48C144.497 399.846 146.478 401.075 147.79 402.899C149.102 404.722 149.638 406.992 149.28 409.21V409.21Z" fill="white"/>
<path d="M181.51 341.21C181.223 342.828 180.465 344.326 179.331 345.516C178.197 346.706 176.738 347.535 175.136 347.9C173.533 348.265 171.859 348.15 170.321 347.568C168.784 346.987 167.452 345.965 166.492 344.631C165.533 343.297 164.987 341.709 164.925 340.067C164.862 338.425 165.285 336.8 166.141 335.397C166.996 333.994 168.246 332.874 169.735 332.177C171.224 331.48 172.884 331.238 174.51 331.48C176.726 331.848 178.705 333.078 180.017 334.901C181.329 336.724 181.865 338.992 181.51 341.21V341.21Z" fill="white"/>
<path d="M181.51 292.36C181.223 293.978 180.465 295.476 179.331 296.666C178.197 297.856 176.738 298.685 175.136 299.05C173.533 299.415 171.859 299.3 170.321 298.718C168.784 298.137 167.452 297.115 166.492 295.781C165.533 294.447 164.987 292.859 164.925 291.217C164.862 289.575 165.285 287.95 166.141 286.547C166.996 285.144 168.246 284.024 169.735 283.327C171.224 282.63 172.884 282.388 174.51 282.63C176.726 282.998 178.705 284.228 180.017 286.051C181.329 287.874 181.865 290.142 181.51 292.36V292.36Z" fill="white"/>
<path d="M174.61 340.2L150.42 331.12L112 316.7L103.19 313.4C102.83 313.26 100.13 313.67 100.37 314.26C101.703 317.4 103.017 320.537 104.31 323.67L113.71 346.14C117.503 355.193 121.29 364.247 125.07 373.3C128.357 381.1 131.643 388.93 134.93 396.79L138.19 404.56L139.19 406.95C139.324 407.395 139.505 407.824 139.73 408.23C139.759 408.281 139.783 408.334 139.8 408.39C140.05 409 142.88 408.05 142.7 407.62C141.367 404.48 140.053 401.343 138.76 398.21C135.633 390.723 132.5 383.233 129.36 375.74C125.58 366.68 121.793 357.627 118 348.58L108.18 325.09C107.087 322.503 106.003 319.913 104.93 317.32C104.495 316.065 103.981 314.839 103.39 313.65C103.361 313.596 103.337 313.539 103.32 313.48L100.5 314.35L124.69 323.43L163.08 337.84L171.88 341.15C172.504 341.275 173.152 341.198 173.73 340.93C173.83 340.93 175.02 340.35 174.62 340.2H174.61Z" fill="white"/>
<path d="M93.12 31.06L104.22 49.06L121.74 77.44L125.79 83.98C126.17 84.61 128.34 83.79 128.66 83.33L144.23 60.92L169 25.21L174.65 17.07C174.93 16.67 173.6 16.84 173.51 16.86C172.87 16.9037 172.266 17.1689 171.8 17.61C166.6 25.0833 161.417 32.5467 156.25 40C147.99 51.9 139.727 63.7933 131.46 75.68L125.81 83.81L128.68 83.16L117.59 65.16L100.06 36.79L96.06 30.24C95.65 29.58 92.97 30.71 93.16 31.02L93.12 31.06Z" fill="white"/>
<path d="M85.85 154.21L87.11 142.21C88.1167 132.643 89.1167 123.073 90.11 113.5L93.76 79C94.8134 69 95.86 59.0333 96.9 49.1L97.95 39.16C98.06 38.16 98.16 37.16 98.27 36.11C98.3957 35.5761 98.4528 35.0284 98.44 34.48C98.4356 34.4134 98.4356 34.3466 98.44 34.28C98.44 33.98 95.63 34.22 95.54 35.05C95.1267 39.05 94.71 43.05 94.29 47.05C93.2834 56.6167 92.2834 66.1867 91.29 75.76L87.66 110.34L84.51 140.25C84.17 143.583 83.8367 146.893 83.51 150.18L83.19 153.24C83.06 153.77 83.0028 154.315 83.02 154.86C83.025 154.93 83.025 155 83.02 155.07C83.02 155.37 85.83 155.13 85.91 154.29L85.85 154.21Z" fill="white"/>
<path d="M173.17 69.25L147.65 77L131.79 81.79L127.64 83C126.898 83.1111 126.213 83.4624 125.69 84C124.25 86 123.14 88.25 121.89 90.32L114.24 103L95 135C92.4 139.32 89.7967 143.653 87.19 148C85.89 150.16 84.31 152.32 83.19 154.6C83.14 154.7 83.07 154.8 83.01 154.9C82.76 155.32 84.01 155.14 84.15 155.12C84.64 155.03 85.57 154.84 85.86 154.36L100.42 130.21L123.42 92.04L128.68 83.32L127.36 83.98L143 79.23L167.74 71.76L173.43 70.04C173.67 69.97 174.89 69.67 174.78 69.26C174.67 68.85 173.4 69.2 173.22 69.26L173.17 69.25Z" fill="white"/>
<path d="M9.88006 187.52L35.3701 176.64L75.74 159.42L85.05 155.42C85.49 155.23 86.2501 154.42 85.7301 153.94L70.24 138.64L45.5601 114.26L39.9001 108.67C38.9801 107.76 36.23 108.95 37.24 109.95C42.4067 115.043 47.5701 120.14 52.7301 125.24L77.4201 149.62L83.08 155.21L83.77 153.73L58.27 164.6L17.9101 181.82L8.60006 185.82C8.06006 186.05 7.51006 186.72 7.91006 187.3C8.31006 187.88 9.32006 187.75 9.91006 187.51L9.88006 187.52Z" fill="white"/>
<path d="M34.72 332.74L57.57 326.51L93.7 316.67L102.01 314.41C102.44 314.29 103.28 314.04 103.31 313.48C103.697 305.56 104.083 297.64 104.47 289.72C105.077 277.087 105.69 264.457 106.31 251.83L106.73 243.12C106.73 242.52 104.89 243.04 104.73 243.12L80.73 251.43L42.73 264.58L33.97 267.58C33.79 267.64 32.65 268.19 33.13 268.51L53.39 282.32L88.03 305.93L98.82 313.29L100.42 314.38C100.19 314.22 100.42 313.97 100.32 314.23C100.283 314.364 100.256 314.502 100.24 314.64L99.91 316.23L92.8 351.23L86.5 382.23L86.39 382.77C86.22 383.58 89.1 383.11 89.26 382.31C90.84 374.55 92.4167 366.793 93.99 359.04L101.49 322.11C102.07 319.28 102.64 316.45 103.22 313.62C103.242 313.57 103.246 313.514 103.231 313.461C103.217 313.408 103.184 313.362 103.14 313.33L80.36 297.81L44.11 273.09L35.85 267.47L35.02 268.4L59.02 260.09L97.02 246.94L105.78 243.94H103.78C103.4 251.86 103.017 259.78 102.63 267.7C102.017 280.327 101.403 292.957 100.79 305.59L100.36 314.3L101.67 313.37L78.81 319.6L42.68 329.43L34.38 331.7C34.06 331.78 32.94 332.12 33.07 332.63C33.2 333.14 34.39 332.85 34.67 332.78L34.72 332.74Z" fill="white"/>
<path d="M173 292.33C164.37 294.81 155.75 297.33 147.13 299.82L116.73 308.62L101.63 313C101.13 313.14 100.23 313.59 100.41 314.26C100.59 314.93 101.61 314.88 102.09 314.74L125.48 308L162.48 297.28L173.48 294.1C173.98 293.95 174.88 293.5 174.7 292.84C174.52 292.18 173.5 292.22 173.02 292.36L173 292.33Z" fill="white"/>
<path d="M174.6 295.19C169.62 291.35 164.62 287.52 159.6 283.7L133.65 263.78L126.78 258.5C126.12 257.99 123.55 259.13 124.06 259.5L142.06 273.34L163.26 289.62C166.11 291.81 168.97 293.99 171.82 296.19C172.48 296.7 175.05 295.56 174.54 295.19H174.6Z" fill="white"/>
<path d="M111.1 246.45L107.2 243.45L106.65 243.03C106.49 242.9 106.08 242.95 105.92 242.96C105.534 243 105.155 243.088 104.79 243.22C104.62 243.28 103.53 243.7 103.91 243.99L107.8 246.99L108.36 247.42C108.593 247.507 108.845 247.531 109.09 247.49C109.476 247.45 109.855 247.362 110.22 247.23C110.39 247.16 111.48 246.75 111.1 246.46V246.45Z" fill="white"/>
<path d="M174.58 139.63C169.4 133.21 164.207 126.823 159 120.47L134.24 90L128.58 83C127.94 82.22 125.16 83.24 125.89 84.15C131.077 90.53 136.263 96.9167 141.45 103.31L166.23 133.82L171.89 140.82C172.53 141.6 175.32 140.58 174.58 139.68V139.63Z" fill="white"/>
<path d="M84.18 155.28L93.02 153.85L114.26 150.4L139.83 146.26L162.05 142.65C165.65 142.07 169.27 141.54 172.86 140.9H173.01C173.4 140.83 174.66 140.55 174.68 140C174.7 139.45 173.87 139.47 173.47 139.54L164.62 141L143.38 144.45L117.81 148.59L95.59 152.2C91.99 152.78 88.38 153.31 84.79 153.95H84.64C84.24 154.02 82.99 154.3 82.97 154.85C82.95 155.4 83.78 155.38 84.18 155.31V155.28Z" fill="white"/>
<path d="M87.7301 162.16L86.9201 158.76C86.8001 158.24 86.71 157.7 86.55 157.18C86.55 157.11 86.55 156.99 86.55 157.18C86.55 157.37 86.55 157.05 86.55 156.92C86.5 156.64 86.42 156.36 86.36 156.09L85.9101 154.16C85.7501 153.47 84.7401 153.38 84.1901 153.55C83.6401 153.72 82.8401 154.22 83.0101 154.94C83.1401 155.48 83.2601 156.02 83.3901 156.56C83.4701 156.89 83.54 157.22 83.62 157.56C83.6309 157.641 83.6476 157.721 83.6701 157.8C83.6701 157.87 83.6701 157.28 83.6701 157.7C83.6668 157.753 83.6668 157.807 83.6701 157.86C83.7401 158.32 83.88 158.77 83.99 159.22L84.52 161.49C84.64 161.96 84.75 162.43 84.86 162.91C85.18 164.26 88.0801 163.5 87.7601 162.13L87.7301 162.16Z" fill="white"/>
<path d="M106.73 243.12C106.54 242.34 106.36 241.55 106.18 240.77L106.1 240.44C106.049 240.304 105.968 240.182 105.862 240.084C105.756 239.985 105.629 239.912 105.49 239.87C105.132 239.76 104.748 239.76 104.39 239.87C104.024 239.956 103.692 240.151 103.44 240.43C103.341 240.536 103.268 240.663 103.226 240.802C103.185 240.941 103.176 241.087 103.2 241.23C103.38 242.01 103.57 242.79 103.75 243.58L103.83 243.91C103.88 244.046 103.961 244.169 104.067 244.268C104.173 244.367 104.301 244.44 104.44 244.48C104.799 244.583 105.18 244.586 105.541 244.489C105.902 244.392 106.23 244.199 106.49 243.93C106.589 243.824 106.662 243.697 106.704 243.558C106.745 243.419 106.754 243.273 106.73 243.13V243.12Z" fill="white"/>
<path d="M104.63 242.38L104.01 243.32L103.92 243.45C103.881 243.497 103.853 243.551 103.838 243.61C103.822 243.669 103.82 243.73 103.83 243.79C103.821 243.845 103.827 243.902 103.846 243.954C103.866 244.007 103.898 244.053 103.94 244.09C104.027 244.187 104.143 244.253 104.27 244.28C104.413 244.349 104.571 244.384 104.73 244.38H105.09C105.359 244.35 105.622 244.279 105.87 244.17C106.174 244.049 106.44 243.849 106.64 243.59L107.26 242.65L107.35 242.52C107.388 242.473 107.416 242.418 107.431 242.36C107.447 242.301 107.45 242.24 107.44 242.18C107.45 242.125 107.444 242.068 107.425 242.015C107.406 241.963 107.373 241.916 107.33 241.88C107.244 241.78 107.128 241.71 107 241.68C106.854 241.62 106.698 241.589 106.54 241.59H106.17C105.906 241.622 105.647 241.689 105.4 241.79C105.096 241.915 104.83 242.119 104.63 242.38V242.38Z" fill="white"/>
<path d="M162.13 159L171.71 144.43L174.71 139.93C175.02 139.45 173.71 139.56 173.53 139.58C172.883 139.625 172.279 139.923 171.85 140.41C168.41 145.617 164.98 150.83 161.56 156.05L159.31 159.48C158.99 159.95 160.31 159.85 160.48 159.83C161.131 159.787 161.738 159.489 162.17 159H162.13Z" fill="white"/>
<path d="M103.49 332.28C111.73 332.28 118.41 325.152 118.41 316.36C118.41 307.568 111.73 300.44 103.49 300.44C95.25 300.44 88.5701 307.568 88.5701 316.36C88.5701 325.152 95.25 332.28 103.49 332.28Z" fill="white"/>
<path d="M115.39 253.72C114.097 255.091 112.525 256.169 110.78 256.88C108.822 257.7 106.697 258.043 104.58 257.88C101.927 257.637 99.3921 256.669 97.2527 255.081C95.1132 253.494 93.4517 251.349 92.45 248.88C92.35 248.63 92.25 248.39 92.17 248.14C91.0902 245.243 90.9771 242.074 91.8477 239.107C92.7183 236.14 94.5258 233.534 97 231.68L104.63 240.83L105.97 242.44L109.71 246.93L115.39 253.72Z" fill="white"/>
<path d="M95 159.27H90.36L86.26 162.55L84.45 164L82 165.94C80.1666 165.572 78.4503 164.763 76.9991 163.583C75.5479 162.404 74.4054 160.889 73.67 159.17L73.61 159.03C72.4563 156.179 72.4812 152.986 73.6792 150.153C74.8773 147.32 77.1506 145.078 80 143.92C81.7734 143.187 83.7002 142.902 85.61 143.09C87.3004 143.257 88.9328 143.797 90.39 144.67C92.5405 145.935 94.2164 147.87 95.16 150.18C95.5037 151.001 95.7455 151.86 95.88 152.74C96.2328 154.956 95.9268 157.227 95 159.27V159.27Z" fill="white"/>
<path d="M139.07 84.43C138.791 86.8028 137.81 89.0384 136.253 90.8503C134.696 92.6623 132.633 93.9682 130.329 94.6008C128.026 95.2334 125.585 95.1639 123.321 94.4011C121.057 93.6384 119.072 92.2172 117.621 90.3195C116.169 88.4219 115.317 86.1341 115.174 83.7493C115.03 81.3644 115.602 78.9911 116.816 76.9332C118.029 74.8752 119.83 73.2264 121.986 72.1979C124.143 71.1694 126.557 70.808 128.92 71.16C132.025 71.5754 134.838 73.2063 136.741 75.6945C138.644 78.1827 139.482 81.3246 139.07 84.43V84.43Z" fill="white"/>
<path d="M257.83 316.36C257.83 325.15 264.51 332.27 272.75 332.27C280.99 332.27 287.66 325.15 287.66 316.36C287.66 307.57 280.98 300.44 272.75 300.44C264.52 300.44 257.83 307.57 257.83 316.36Z" fill="white"/>
<path d="M284.59 246.19C284.403 247.079 284.135 247.949 283.79 248.79C282.797 251.239 281.155 253.371 279.04 254.957C276.926 256.543 274.419 257.522 271.79 257.79C269.624 257.99 267.443 257.664 265.43 256.84C263.278 255.959 261.395 254.528 259.97 252.69L267.48 243.69L270.43 240.14L271.52 238.84L278.1 230.94C280.649 232.476 282.648 234.776 283.814 237.514C284.979 240.253 285.251 243.288 284.59 246.19V246.19Z" fill="white"/>
<path d="M302.6 159L302.54 159.13C301.71 161.078 300.36 162.761 298.639 163.996C296.918 165.23 294.892 165.968 292.78 166.13L289.65 163.62L284.18 159.25H281.18C280.257 157.206 279.954 154.935 280.31 152.72C280.444 151.84 280.686 150.981 281.03 150.16C281.974 147.845 283.654 145.905 285.81 144.64C287.363 143.717 289.11 143.169 290.912 143.041C292.714 142.912 294.522 143.206 296.19 143.9C299.041 145.055 301.317 147.293 302.518 150.124C303.72 152.955 303.749 156.147 302.6 159V159Z" fill="white"/>
<path d="M237.17 84.43C237.449 86.8028 238.43 89.0384 239.987 90.8503C241.544 92.6623 243.607 93.9682 245.911 94.6008C248.215 95.2334 250.655 95.1639 252.919 94.4011C255.183 93.6384 257.168 92.2172 258.619 90.3195C260.071 88.4219 260.923 86.1341 261.066 83.7493C261.21 81.3644 260.638 78.9911 259.424 76.9332C258.211 74.8752 256.41 73.2264 254.254 72.1979C252.097 71.1694 249.683 70.808 247.32 71.16C244.215 71.5754 241.402 73.2063 239.499 75.6945C237.596 78.1827 236.758 81.3246 237.17 84.43Z" fill="white"/>
<path d="M333.47 272.2C333.757 273.818 334.515 275.316 335.649 276.506C336.783 277.696 338.242 278.525 339.845 278.89C341.447 279.255 343.122 279.14 344.659 278.558C346.196 277.977 347.528 276.955 348.488 275.621C349.447 274.287 349.993 272.699 350.055 271.057C350.118 269.415 349.695 267.79 348.839 266.387C347.984 264.984 346.734 263.864 345.245 263.167C343.757 262.47 342.096 262.228 340.47 262.47C338.253 262.836 336.272 264.065 334.96 265.889C333.648 267.712 333.112 269.982 333.47 272.2V272.2Z" fill="white"/>
<path d="M330.21 334.66C330.497 336.278 331.255 337.776 332.389 338.966C333.523 340.156 334.982 340.985 336.584 341.35C338.187 341.715 339.861 341.6 341.399 341.018C342.936 340.437 344.268 339.415 345.228 338.081C346.187 336.747 346.733 335.159 346.795 333.517C346.858 331.875 346.435 330.25 345.579 328.847C344.724 327.444 343.474 326.324 341.985 325.627C340.497 324.93 338.836 324.688 337.21 324.93C334.992 325.293 333.009 326.522 331.696 328.346C330.384 330.171 329.849 332.442 330.21 334.66V334.66Z" fill="white"/>
<path d="M280.69 377C280.976 378.621 281.733 380.122 282.868 381.315C284.003 382.508 285.464 383.34 287.069 383.707C288.674 384.074 290.351 383.959 291.891 383.377C293.432 382.795 294.766 381.772 295.727 380.435C296.689 379.099 297.235 377.508 297.297 375.863C297.359 374.218 296.935 372.591 296.077 371.186C295.219 369.781 293.966 368.66 292.474 367.963C290.982 367.267 289.318 367.026 287.69 367.27C285.474 367.638 283.495 368.868 282.183 370.691C280.871 372.514 280.335 374.782 280.69 377V377Z" fill="white"/>
<path d="M227 409.21C227.286 410.831 228.043 412.332 229.178 413.525C230.313 414.718 231.774 415.55 233.379 415.917C234.984 416.284 236.661 416.169 238.202 415.587C239.742 415.005 241.076 413.982 242.037 412.645C242.999 411.309 243.545 409.718 243.607 408.073C243.669 406.428 243.245 404.801 242.387 403.396C241.529 401.991 240.276 400.87 238.784 400.173C237.292 399.477 235.628 399.236 234 399.48C231.786 399.851 229.808 401.081 228.496 402.904C227.185 404.726 226.647 406.993 227 409.21V409.21Z" fill="white"/>
<path d="M194.8 341.21C195.087 342.828 195.845 344.326 196.979 345.516C198.113 346.706 199.572 347.535 201.174 347.9C202.777 348.265 204.451 348.15 205.989 347.568C207.526 346.987 208.858 345.965 209.818 344.631C210.777 343.297 211.323 341.709 211.385 340.067C211.448 338.425 211.025 336.8 210.169 335.397C209.314 333.994 208.064 332.874 206.575 332.177C205.086 331.48 203.426 331.238 201.8 331.48C199.584 331.848 197.605 333.078 196.293 334.901C194.981 336.724 194.445 338.992 194.8 341.21V341.21Z" fill="white"/>
<path d="M194.8 292.36C195.087 293.978 195.845 295.476 196.979 296.666C198.113 297.856 199.572 298.685 201.174 299.05C202.777 299.415 204.451 299.3 205.989 298.718C207.526 298.137 208.858 297.115 209.818 295.781C210.777 294.447 211.323 292.859 211.385 291.217C211.448 289.575 211.025 287.95 210.169 286.547C209.314 285.144 208.064 284.024 206.575 283.327C205.086 282.63 203.426 282.388 201.8 282.63C199.584 282.998 197.605 284.228 196.293 286.051C194.981 287.874 194.445 290.142 194.8 292.36V292.36Z" fill="white"/>
<path d="M203.55 340.94L227.74 331.85L266.13 317.44L274.93 314.14H273L269.07 323.55C265.93 331.043 262.797 338.533 259.67 346.02C255.877 355.08 252.09 364.137 248.31 373.19L238.48 396.67C237.4 399.26 236.31 401.85 235.23 404.45C234.9 405.24 234.57 406.04 234.23 406.83C234.002 407.233 233.824 407.663 233.7 408.11C233.683 408.169 233.659 408.226 233.63 408.28C233.48 408.63 236.18 408.44 236.48 407.73L240.41 398.32L249.81 375.85C253.603 366.797 257.39 357.743 261.17 348.69L271 325.2C272.08 322.613 273.163 320.023 274.25 317.43C274.58 316.64 274.91 315.84 275.25 315.05C275.478 314.643 275.656 314.21 275.78 313.76C275.799 313.705 275.822 313.651 275.85 313.6C276.08 313.06 274.1 313.55 273.94 313.6L249.76 322.68L211.39 337.1L202.59 340.41C202.32 340.51 201.46 340.76 201.7 341.15C201.94 341.54 203.34 341.02 203.55 340.94V340.94Z" fill="white"/>
<path d="M280.3 30.9L269.2 48.9L251.68 77.27L247.68 83.82L250.47 83.07L234.91 60.66L210.08 25L204.43 16.86C203.98 16.22 201.17 17.14 201.71 17.92L217.28 40.32L242.07 75.99L247.72 84.13C248.22 84.85 250.19 83.91 250.51 83.38L261.61 65.38L279.13 37L283.13 30.46C283.44 29.94 282.13 30.01 281.93 30.03C281.604 30.0519 281.287 30.1415 280.997 30.293C280.708 30.4445 280.454 30.6546 280.25 30.91L280.3 30.9Z" fill="white"/>
<path d="M293.28 154.21L292.17 142.73C291.27 133.543 290.377 124.35 289.49 115.15L286.25 81.77C285.31 72.15 284.373 62.53 283.44 52.91C283.13 49.73 282.83 46.56 282.52 43.38L282.23 40.38C282.231 39.8563 282.181 39.3338 282.08 38.82C282.07 38.7504 282.07 38.6796 282.08 38.61C282.02 38.05 279.08 38.61 279.18 39.39L280.29 50.87C281.19 60.07 282.083 69.2633 282.97 78.45C284.05 89.5833 285.133 100.71 286.22 111.83L289.02 140.7C289.33 143.87 289.64 147.05 289.94 150.22L290.23 153.22C290.229 153.747 290.28 154.273 290.38 154.79C290.395 154.856 290.395 154.924 290.38 154.99C290.44 155.55 293.38 154.99 293.28 154.21V154.21Z" fill="white"/>
<path d="M202.18 70.57L227.47 78.2L243.25 83L247.59 84.31C247.796 84.3875 248.006 84.4509 248.22 84.5C248.01 84.84 247.6 83.78 247.93 84.5C248.335 85.29 248.792 86.0518 249.3 86.78L251.9 91.1L259.52 103.77L278.72 135.68L286.39 148.41C287.69 150.58 288.9 152.85 290.32 154.95L290.5 155.25C291.11 156.25 293.9 155.25 293.17 154.02L283.43 137.84L264.33 106.1C259.897 98.7667 255.47 91.41 251.05 84.03C250.72 83.49 250.52 82.93 249.93 82.67C249.183 82.3903 248.418 82.1598 247.64 81.98L233.64 77.74L204.47 68.93L203.89 68.76C203.538 68.6687 203.168 68.6714 202.817 68.7679C202.466 68.8644 202.146 69.0513 201.89 69.31C201.784 69.4004 201.705 69.5189 201.664 69.652C201.622 69.785 201.619 69.9271 201.654 70.0619C201.69 70.1968 201.763 70.3188 201.865 70.414C201.966 70.5092 202.093 70.5737 202.23 70.6L202.18 70.57Z" fill="white"/>
<path d="M368.2 185.9L342.69 175L302.29 157.77L292.97 153.77C292.97 154.14 292.97 154.51 292.97 154.88L308.48 139.58L333.2 115.21L338.88 109.62C338.984 109.535 339.06 109.421 339.101 109.293C339.142 109.165 339.145 109.029 339.11 108.899C339.076 108.769 339.004 108.652 338.905 108.562C338.806 108.472 338.682 108.412 338.55 108.39C338.19 108.304 337.813 108.309 337.455 108.405C337.098 108.502 336.769 108.685 336.5 108.94L321 124.3L296.28 148.67L290.6 154.27C290.31 154.55 290.18 155.17 290.66 155.37L316.17 166.25L356.58 183.47L365.9 187.47C366.234 187.613 366.598 187.667 366.959 187.629C367.319 187.59 367.664 187.46 367.96 187.25C368.34 186.99 368.84 186.25 368.16 185.93L368.2 185.9Z" fill="white"/>
<path d="M342.57 331.22L319.72 325L283.59 315.16L275.28 312.9L275.91 313.77L274.76 289.13C274.14 276.037 273.527 262.953 272.92 249.88C272.78 246.887 272.637 243.887 272.49 240.88L270.19 241.97L294.19 251.13L332.19 265.63L340.9 269L340.78 267.35L318 282.87L281.74 307.58L273.48 313.21C273.301 313.314 273.159 313.471 273.073 313.659C272.987 313.847 272.962 314.057 273 314.26C274.573 322.013 276.15 329.77 277.73 337.53L285.23 374.46C285.81 377.29 286.38 380.12 286.96 382.95C287.23 384.29 290.13 383.55 289.85 382.17C288.277 374.423 286.703 366.67 285.13 358.91C282.623 346.59 280.12 334.277 277.62 321.97C277.05 319.14 276.47 316.31 275.9 313.48C275.73 313.83 275.57 314.19 275.41 314.54L298.19 299L334.44 274.29L342.7 268.66C342.857 268.58 342.987 268.455 343.073 268.302C343.159 268.148 343.197 267.972 343.184 267.797C343.17 267.621 343.104 267.453 342.995 267.315C342.885 267.177 342.738 267.074 342.57 267.02L318.57 257.85L280.57 243.36L271.86 240C271.19 239.74 269.51 240.11 269.56 241.09L270.72 265.73C271.327 278.823 271.94 291.907 272.56 304.98L272.98 313.98C272.971 314.175 273.028 314.367 273.143 314.525C273.257 314.684 273.422 314.798 273.61 314.85L296.47 321.08L332.59 330.91L340.9 333.18C341.259 333.29 341.642 333.297 342.004 333.199C342.367 333.102 342.694 332.905 342.95 332.63C343.056 332.526 343.131 332.395 343.17 332.252C343.209 332.109 343.209 331.958 343.17 331.814C343.131 331.671 343.056 331.541 342.95 331.436C342.845 331.332 342.714 331.257 342.57 331.22V331.22Z" fill="white"/>
<path d="M201.87 293.73L225.99 300.73L264.42 311.86L273.25 314.42C273.941 314.491 274.637 314.355 275.25 314.03C275.51 313.9 276.25 313.54 275.63 313.36L251.51 306.36L213.07 295.23L204.25 292.67C203.559 292.599 202.863 292.735 202.25 293.06C201.99 293.19 201.25 293.55 201.87 293.73Z" fill="white"/>
<path d="M204 293.84L218.34 282.84L243 263.93L249.54 258.93C251.09 257.74 248.75 256.78 247.62 257.65L230.41 270.86L210.12 286.45L202.12 292.58C200.56 293.77 202.91 294.73 204.04 293.86L204 293.84Z" fill="white"/>
<path d="M270.11 240.51L267 242.88L266.56 243.22C266.306 243.367 266.114 243.602 266.02 243.88C266.005 243.998 266.028 244.118 266.085 244.222C266.143 244.327 266.232 244.41 266.34 244.46C266.651 244.609 267 244.658 267.34 244.6C267.732 244.566 268.11 244.436 268.44 244.22L271.52 241.85L271.96 241.51C272.211 241.362 272.399 241.127 272.49 240.85C272.508 240.731 272.488 240.61 272.432 240.504C272.377 240.398 272.288 240.312 272.18 240.26C271.868 240.115 271.519 240.069 271.18 240.13C270.785 240.153 270.405 240.284 270.08 240.51H270.11Z" fill="white"/>
<path d="M204.28 140.62C209.473 134.227 214.66 127.84 219.84 121.46L244.63 91L250.29 84C251.44 82.58 248.69 82.13 247.86 83.15C242.68 89.5433 237.493 95.93 232.3 102.31L207.52 132.8L201.86 139.8C200.71 141.22 203.45 141.67 204.28 140.65V140.62Z" fill="white"/>
<path d="M292.32 153.49L283.48 152.06L262.25 148.61L236.71 144.47L214.51 140.87C210.92 140.28 207.32 139.54 203.71 139.11H203.56C202.06 138.87 200.65 141.01 202.56 141.33L211.4 142.76L232.63 146.2L258.18 150.35L280.38 153.95C283.96 154.54 287.57 155.28 291.17 155.71H291.33C292.82 155.95 294.24 153.81 292.33 153.49H292.32Z" fill="white"/>
<path d="M291.11 163.51L292.76 156.7L293.29 154.47C293.46 153.78 292.46 153.54 291.97 153.6C291.621 153.602 291.281 153.711 290.996 153.911C290.71 154.111 290.492 154.393 290.37 154.72L288.54 162.3C288.42 162.79 288.3 163.3 288.19 163.76C288.02 164.45 289.02 164.7 289.51 164.64C289.859 164.634 290.199 164.523 290.484 164.322C290.77 164.12 290.988 163.837 291.11 163.51V163.51Z" fill="white"/>
<path d="M270.08 239L269.63 240.87L269.56 241.14C269.547 241.278 269.573 241.416 269.635 241.54C269.697 241.664 269.792 241.768 269.91 241.84C270.211 242.018 270.563 242.092 270.91 242.05C271.302 242.016 271.679 241.878 272 241.65L272.26 241.42C272.393 241.275 272.48 241.094 272.51 240.9C272.67 240.27 272.82 239.65 272.97 239.02L273.03 238.76C273.045 238.623 273.021 238.485 272.961 238.361C272.901 238.237 272.807 238.133 272.69 238.06C272.389 237.882 272.037 237.808 271.69 237.85C271.297 237.88 270.919 238.018 270.6 238.25L270.34 238.48C270.204 238.624 270.113 238.805 270.08 239V239Z" fill="white"/>
<path d="M272.48 240.62C272.31 240.38 272.15 240.13 271.98 239.88L271.91 239.78C271.895 239.747 271.871 239.718 271.841 239.697C271.811 239.676 271.776 239.664 271.74 239.66C271.631 239.634 271.519 239.634 271.41 239.66C271.245 239.662 271.081 239.679 270.92 239.71C270.731 239.731 270.543 239.768 270.36 239.82L269.97 239.94C269.759 240.011 269.555 240.102 269.36 240.21L269.16 240.35C269.114 240.373 269.075 240.409 269.048 240.453C269.022 240.497 269.008 240.548 269.01 240.6L269.51 241.33L269.58 241.44C269.593 241.472 269.616 241.499 269.644 241.518C269.672 241.538 269.706 241.549 269.74 241.55C269.848 241.592 269.964 241.609 270.08 241.6C270.244 241.598 270.408 241.581 270.57 241.55C270.759 241.529 270.947 241.492 271.13 241.44L271.51 241.32C271.725 241.251 271.933 241.16 272.13 241.05L272.33 240.91C272.376 240.887 272.415 240.851 272.442 240.807C272.468 240.763 272.482 240.712 272.48 240.66V240.62Z" fill="white"/>
<path d="M217.38 158.88C214.1 154.007 210.817 149.14 207.53 144.28L204.53 139.81C204.08 139.15 201.45 140.33 201.63 140.59C205.157 145.81 208.68 151.033 212.2 156.26L214.49 159.66C214.93 160.31 217.56 159.14 217.39 158.88H217.38Z" fill="white"/>
<path d="M213.55 223.81L245.73 185.81L213.55 223.81Z" fill="white"/>
<path d="M130.12 185.75L155.44 216.14L130.12 185.75Z" fill="white"/>
<path d="M141 164.27L115.95 184.27L141.03 164.27H141Z" fill="white"/>
<path d="M285.93 154.27H88.63L51.03 184.27L122.58 270.11L155.26 231.49L187.45 270.11L220 231.64L251.9 270.2L323.5 184.31L285.93 154.27ZM122.64 254.6L65.25 185.75L92.13 164.27H141L115.92 184.27L148.69 223.58L148.78 223.69L122.64 254.6ZM155.45 216.14L130.13 185.75L157 164.27H202.36L155.45 216.13V216.14ZM213.56 223.82L187.51 254.61L161.91 223.89L215.84 164.27H218.05L245.74 185.78L213.56 223.82ZM226.56 223.89L260.07 184.28L234.32 164.28H282.4L309.28 185.76L252 254.56L226.56 223.89Z" fill="white"/>
</svg>
