<svg width="70" height="71" viewBox="0 0 70 71" fill="none" xmlns="http://www.w3.org/2000/svg">
<path d="M15.7079 4.19784C9.55986 7.87638 8.59375 8.81558 7.18849 12.2593C6.22237 14.3725 4.90494 17.1901 4.20231 18.5207C3.41185 19.7729 2.18225 21.8861 1.39179 23.2167C-0.716098 26.9735 -0.364784 38.0091 2.00659 42.1572C3.14837 44.1139 3.93882 46.8533 3.93882 48.8882C3.93882 54.8365 4.90494 57.1062 8.68158 60.3934C10.6138 62.1153 13.7756 64.7763 15.5322 66.3417C19.3967 69.7854 25.1055 71.116 28.1796 69.2376C31.6927 67.2026 33.1858 62.4283 33.1858 52.7233C33.1858 45.9923 33.3614 44.1139 34.2397 44.74C34.8545 45.2096 35.5572 45.2096 36.172 44.6618C36.8746 44.0356 37.1381 46.3054 37.0503 52.3319C37.0503 62.4283 38.192 66.8113 41.5295 68.8462C45.3062 71.1942 49.6098 70.3333 54.616 66.1069C66.1216 56.5583 66.2972 56.3235 66.2972 48.3403C66.2972 46.6185 67.0877 43.7226 68.1416 41.9224C69.4591 39.3396 69.986 36.9134 69.986 31.9043C70.0739 25.8777 69.8104 24.8603 67.3512 21.0252C65.8581 18.7555 64.2772 15.39 63.7502 13.6681C62.5206 9.75478 59.5344 6.93718 52.5081 3.02384C46.9749 0.0496999 43.9009 -0.498168 39.4216 0.910635L36.8746 1.6933L36.9624 13.8247L37.1381 25.956H35.118H33.0101L33.1858 13.8247L33.3614 1.6933L30.8144 0.910635C25.8082 -0.654701 22.9977 -0.0285669 15.7079 4.19784ZM30.4631 2.71077C31.3414 3.96304 31.3414 11.0853 30.4631 11.0853C30.024 11.0853 29.0578 11.5549 28.0917 12.1028C26.5986 13.1203 26.6865 13.1985 28.6187 13.1203C30.4631 13.042 30.7266 13.4333 30.9901 16.1727C31.1657 17.8945 30.9022 20.7121 30.5509 22.434C29.9361 24.8603 29.3213 25.6429 27.7404 25.7995C26.2473 26.0343 25.896 25.7995 26.423 25.0951C26.8621 24.3907 26.5986 24.3124 25.5447 24.6255C24.6664 24.9385 22.4707 25.4081 20.7141 25.6429L17.3766 26.1125L16.674 22.7471C15.9714 19.6947 15.8835 19.5381 15.62 21.4948C15.3566 22.7471 14.6539 23.9211 13.9513 24.1559C13.2487 24.3907 12.7217 25.2516 12.7217 26.0343C12.7217 26.8169 12.4582 27.5213 12.1069 27.5213C11.6678 27.5213 10.9651 28.3823 10.3503 29.478C9.47203 31.2782 9.73552 31.826 13.3365 35.348C15.5322 37.4612 17.1131 39.6527 16.9375 40.1223C16.7618 40.5919 14.3026 41.8442 11.4043 42.8616C6.66152 44.5835 6.13454 44.6618 4.64145 43.4878C2.97271 42.079 1.30396 37.7743 1.30396 34.4871C1.30396 33.0783 2.00659 32.1391 3.76317 31.4347L6.13454 30.339L3.67534 30.0259C1.30396 29.7911 1.1283 29.6346 1.74311 26.8952C2.62139 22.8253 4.4658 19.9295 6.57369 19.4599C7.97895 19.1468 8.24243 18.5989 7.80329 16.7205C7.10066 13.5899 9.64769 8.97212 13.073 7.09371C15.7079 5.68491 15.7079 5.68491 18.1671 7.71985L20.5385 9.75478L19.5723 7.32851C18.4306 4.66744 19.3967 2.8673 22.822 1.61504C25.0177 0.754101 29.497 1.38024 30.4631 2.71077ZM49.4341 2.94557C50.5759 3.64997 51.3663 4.58917 51.1029 5.05878C50.9272 5.60664 50.4002 6.85891 50.0489 7.95465L49.4341 9.91132L51.542 8.11118C54.3525 5.84144 55.8456 5.91971 58.5683 8.50252C61.4666 11.2419 63.0476 14.7639 62.3449 17.1901C61.9936 18.5989 62.2571 19.1468 63.4867 19.4599C65.5946 19.9295 67.7903 23.2949 68.2295 26.7387C68.4929 29.3998 68.4051 29.478 65.5068 29.2432L62.4328 29.0084L65.5068 30.8868C68.1416 32.5304 68.4929 33.0783 68.3173 36.0524C68.0538 40.5919 65.4189 44.427 62.6962 44.1139C61.1153 44.0356 60.9397 44.1139 61.818 44.6618C62.8719 45.2879 62.8719 45.601 61.9936 46.5402C61.1153 47.5577 61.2032 47.7142 62.6962 47.3229C64.9798 46.775 65.9459 49.6709 64.5406 52.8798C63.838 54.6799 63.2232 54.993 61.6423 54.6017C60.5884 54.2886 58.5683 53.8973 57.0752 53.5842C55.6699 53.3494 53.8255 52.4885 53.0351 51.7058C51.8933 50.5318 51.3663 50.4535 50.3124 51.2362C48.3802 52.645 47.941 54.4451 49.1706 55.9322C50.1367 57.1845 50.4002 57.1845 52.5081 55.6974C54.616 54.2103 54.8795 54.1321 58.3048 55.3843C60.3249 56.0887 61.9058 57.1062 61.9058 57.5758C61.9058 58.1237 60.764 59.5325 59.3588 60.7065C57.5143 62.2718 56.2847 62.7414 54.9673 62.3501C53.4742 61.9587 53.1229 62.1935 53.1229 63.8371C53.1229 67.1244 48.2045 70.0985 45.7453 68.2984C45.0427 67.8288 43.9887 67.594 43.1983 67.907C41.6174 68.3766 39.6851 65.4807 38.8068 61.4109C38.2799 59.0629 38.5433 58.8281 42.1443 57.1845C46.5358 55.2278 46.8871 54.6017 42.847 55.6191C39.5095 56.4801 37.9285 55.6974 38.3677 53.2711C38.6312 51.5493 38.9825 51.3927 43.0226 51.5493L47.414 51.6275L43.5496 50.6883C41.1782 50.1405 39.4216 49.2013 38.9825 48.2621C37.7529 45.4444 38.1042 41.9224 39.8608 40.5136C41.4417 39.2614 41.6174 39.2614 43.3739 41.2963C45.5696 43.8008 45.6575 44.427 43.9009 45.0531C43.1983 45.2879 42.5835 45.914 42.5835 46.3836C42.5835 47.0098 43.1104 46.9315 44.1644 46.1488C44.9548 45.4444 47.0627 44.6618 48.7315 44.3487C50.4002 44.0356 52.3325 43.4095 52.8594 43.0182C53.6499 42.4703 54.8795 42.5486 56.6361 43.1747C58.1291 43.7226 59.5344 43.9574 59.7979 43.8008C60.0614 43.566 58.6561 42.7834 56.6361 42.079C54.7038 41.3746 53.1229 40.4354 53.1229 39.9658C53.1229 39.4962 54.7038 37.5395 56.6361 35.5828C60.0614 32.0608 61.1153 29.8694 59.1831 29.8694C58.6561 29.8694 58.3926 29.3998 58.6561 28.7736C58.9196 28.1475 58.5683 27.4431 57.8657 27.2083C57.0752 26.9735 56.6361 26.2691 56.8117 25.7995C57.0752 25.2516 56.7239 24.3124 56.0213 23.7645C55.4065 23.2167 54.8795 21.8079 54.7917 20.6339C54.7038 18.2076 54.3525 18.912 53.6499 22.9036L53.1229 25.7995L46.5358 25.7212C40.0364 25.6429 39.9486 25.5647 39.9486 23.5297C39.9486 22.3557 40.5634 21.0252 41.3539 20.4773C42.0565 19.8512 43.1104 18.6772 43.5496 17.8163C44.0766 16.7988 43.3739 17.1901 41.8808 18.6772C40.4756 20.086 39.0703 21.26 38.8068 21.26C38.4555 21.26 38.192 19.4599 38.192 17.3467C38.192 13.4333 38.192 13.4333 41.0904 13.4333H43.9009L41.0904 11.868C38.0164 10.2244 37.3137 7.64158 38.9825 3.72824C40.2999 0.754101 44.9548 0.362767 49.4341 2.94557ZM25.0177 27.9909C25.0177 28.2258 24.2273 29.0084 23.1733 29.7911L21.3289 31.1216L24.4907 34.4871C27.5648 37.7743 27.5648 37.8526 26.0717 39.6527C25.2812 40.6702 24.2273 41.6876 23.7003 41.8442C23.2611 42.0007 20.275 39.731 17.201 36.7568L11.4921 31.3564L14.127 29.478C15.9714 28.0692 17.8158 27.5996 20.8898 27.5213C23.1733 27.5213 25.0177 27.7561 25.0177 27.9909ZM55.2308 29.165C56.4604 30.0259 57.5143 31.1216 57.5143 31.5912C57.5143 32.6087 48.0288 42.392 47.0627 42.392C46.7114 42.392 45.5696 41.2963 44.4279 40.044L42.4956 37.6178L45.6575 34.3306C48.8193 31.1216 48.8193 31.0434 47.0627 29.9476C44.2522 28.304 44.867 27.5213 49.0828 27.5213C51.6298 27.5213 53.6499 28.0692 55.2308 29.165ZM30.9901 44.1922C31.1657 46.3054 30.8144 48.4969 30.1996 49.123C29.497 49.9057 29.497 50.2187 30.1996 50.2187C30.7266 50.2187 31.1657 51.471 31.1657 53.0363V55.8539L27.9161 55.3061L24.5786 54.7582L27.6526 56.6366C30.3753 58.2802 30.7266 58.9063 30.6388 61.8022C30.5509 65.0111 28.1796 68.6114 26.6865 67.7505C26.3352 67.594 25.1934 67.8288 24.3151 68.2984C21.8559 69.6289 17.2888 67.3592 16.9375 64.5415C16.7618 62.8197 16.2348 62.4283 14.8296 62.5849C13.073 62.8197 7.45197 58.8281 7.45197 57.341C7.45197 57.0279 9.47203 56.2453 11.8434 55.6191L16.2348 54.3669L19.3089 57.0279C22.0315 59.4542 22.295 59.4542 21.4167 57.7323C20.6263 56.2453 20.6263 55.4626 21.4167 54.6017C22.2072 53.7407 22.1194 53.2711 21.0654 52.2537C19.221 50.6883 17.3766 50.6883 16.4105 52.2537C15.62 53.5059 6.74934 55.3843 5.78323 54.5234C5.60757 54.2886 5.34408 52.645 5.34408 50.8449C5.25626 47.6359 5.34408 47.4794 7.71546 47.4794C9.82335 47.5577 9.99901 47.4011 8.85723 46.6185C6.74934 45.2879 7.01283 45.0531 11.9312 43.6443C15.2687 42.6268 16.674 42.5486 17.5523 43.1747C18.2549 43.7226 19.221 43.8791 19.748 43.566C20.275 43.253 21.1533 43.3312 21.7681 43.8008C23.5246 44.9748 26.0717 45.601 25.4569 44.6618C24.5786 43.4878 27.5648 39.8875 29.2335 40.2006C30.3753 40.3571 30.8144 41.4528 30.9901 44.1922Z" fill="white"/>
</svg>
