<svg width="25" height="25" viewBox="0 0 25 25" fill="none" xmlns="http://www.w3.org/2000/svg">
<path d="M18.1006 0H6.89891C3.09485 0 0 3.095 0 6.89905V18.1008C0 21.905 3.09485 24.9998 6.89891 24.9998H18.1006C21.905 24.9998 24.9999 21.9048 24.9999 18.1008V6.89905C25 3.095 21.905 0 18.1006 0ZM22.7819 18.1008C22.7819 20.6819 20.6819 22.7817 18.1008 22.7817H6.89891C4.31792 22.7819 2.21811 20.6819 2.21811 18.1008V6.89905C2.21811 4.31806 4.31792 2.21811 6.89891 2.21811H18.1006C20.6818 2.21811 22.7817 4.31806 22.7817 6.89905V18.1008H22.7819Z" fill="white"/>
<path d="M12.4999 6.05835C8.94786 6.05835 6.05811 8.9481 6.05811 12.5002C6.05811 16.0521 8.94786 18.9417 12.4999 18.9417C16.052 18.9417 18.9418 16.0521 18.9418 12.5002C18.9418 8.9481 16.052 6.05835 12.4999 6.05835ZM12.4999 16.7235C10.1711 16.7235 8.27621 14.8289 8.27621 12.5C8.27621 10.171 10.1709 8.27631 12.4999 8.27631C14.8289 8.27631 16.7237 10.171 16.7237 12.5C16.7237 14.8289 14.8288 16.7235 12.4999 16.7235Z" fill="white"/>
<path d="M19.2118 4.17761C18.7845 4.17761 18.3646 4.35062 18.0628 4.65377C17.7595 4.95543 17.5852 5.37539 17.5852 5.80422C17.5852 6.23173 17.7597 6.65154 18.0628 6.95468C18.3645 7.25635 18.7845 7.43084 19.2118 7.43084C19.6407 7.43084 20.0591 7.25635 20.3623 6.95468C20.6654 6.65154 20.8384 6.23158 20.8384 5.80422C20.8384 5.37539 20.6654 4.95543 20.3623 4.65377C20.0606 4.35062 19.6407 4.17761 19.2118 4.17761Z" fill="white"/>
</svg>
