<svg width="22" height="22" viewBox="0 0 22 22" fill="none" xmlns="http://www.w3.org/2000/svg">
<path d="M0.509033 21.5025L1.97852 16.2834C1.03355 14.678 0.536023 12.8515 0.536023 10.9751C0.536023 5.19771 5.23629 0.497437 11.0137 0.497437C16.7911 0.497437 21.4913 5.19771 21.4913 10.9751C21.4913 16.7526 16.7911 21.4528 11.0137 21.4528C9.21351 21.4528 7.45076 20.992 5.89135 20.117L0.509033 21.5025ZM6.16651 18.2108L6.48723 18.4067C7.84685 19.2367 9.41211 19.6755 11.0137 19.6755C15.8111 19.6755 19.714 15.7725 19.714 10.9751C19.714 6.17776 15.8111 2.2748 11.0137 2.2748C6.21635 2.2748 2.31339 6.17776 2.31339 10.9751C2.31339 12.6467 2.78847 14.27 3.68716 15.6694L3.90314 16.0057L3.05692 19.0113L6.16651 18.2108Z" fill="white"/>
<path d="M8.07039 6.09847L7.39052 6.06141C7.17697 6.04976 6.96751 6.12112 6.8061 6.26133C6.4765 6.54755 5.94947 7.10091 5.7876 7.82199C5.54621 8.89717 5.91926 10.2137 6.88476 11.5303C7.85027 12.8469 9.64955 14.9534 12.8312 15.853C13.8565 16.143 14.663 15.9475 15.2853 15.5494C15.7782 15.2342 16.1179 14.7282 16.2403 14.1561L16.3489 13.6491C16.3834 13.488 16.3016 13.3244 16.1519 13.2555L13.8541 12.1963C13.705 12.1276 13.5281 12.1711 13.4278 12.3011L12.5257 13.4705C12.4576 13.5588 12.3409 13.5938 12.2356 13.5568C11.6179 13.3397 9.54864 12.4731 8.41323 10.286C8.36399 10.1912 8.37623 10.076 8.44608 9.99512L9.30817 8.99782C9.39624 8.89598 9.41849 8.7528 9.36557 8.62905L8.37512 6.31182C8.32239 6.18846 8.20422 6.10578 8.07039 6.09847Z" fill="white"/>
</svg>
